<svg height="900pt" preserveAspectRatio="xMidYMid meet" viewBox="0 0 900 900" width="900pt" xmlns="http://www.w3.org/2000/svg"><g transform="matrix(.1 0 0 -.1 0 900)"><path d="m4515 7944c-62-56-135-89-143-66-2 7-17 12-33 12-20 0-27 4-23 14 9 23-84 18-96-5-6-10-18-20-28-24-11-3-24-17-30-30-6-14-18-25-27-25-17 0-20 16-5 25 6 3 10 10 10 16 0 18-26 8-64-26-47-41-52-42-60-12-4 16 1 28 22 44 37 31 19 29-22-2-18-14-39-25-45-25-19 0-69-30-128-77-77-62-134-72-99-19 16 25 15 26-9 32-19 5-30 0-44-17-25-31-39-18-17 15 9 14 16 31 16 37 0 20-26-8-61-67-49-81-86-119-104-104-10 8-22 7-49-4-34-14-36-14-36 5 0 11 7 36 15 56s13 38 10 41c-2 3-11-11-20-31-8-19-19-38-24-41-4-3-6-17-3-31 4-26-20-75-38-75-14 0-12 41 4 69 8 14 11 41 8 67-2 25 2 62 12 90 9 26 16 50 16 53 0 11-103-154-121-194-19-43-54-85-69-85-6 0-10-8-10-19 0-10-15-28-33-41-18-12-57-55-87-96-30-40-58-74-62-74-14 0-99-132-94-145 2-7-2-19-11-27-14-11-16-10-11 10 4 12 2 22-3 22-16 0-49-40-49-59 0-30-11-51-26-51-19 0-18-16 1-24 19-7 20-56 2-56-8 0-19 12-26 27-12 27-13 27-27 8-8-10-15-33-16-49-1-17-3-53-5-81-2-27-4-62-4-77 0-28-5-31-71-43-47-7-48-17-3-41 42-22 44-37 9-52-19-9-24-17-19-33 5-15-5-33-40-72-113-124-113-123-60-133 19-3 35-10 35-14 0-29-28-71-73-112-42-38-50-49-39-59 15-16 16-41 0-57-6-6-13-17-15-24-10-49-22-87-32-107-7-13-15-66-17-117-2-52-8-113-14-137-5-23-10-69-10-102-1-33-6-82-11-110-12-62-17-151-24-423-6-206-5-215 16-259 21-43 21-50 10-107-13-62-35-119-73-189-14-27-18-49-15-75 3-20 8-72 11-115 3-42 9-85 14-94 11-18 11-15 32 106 7 36 20 81 30 100 10 20 33 67 52 105 18 38 37 69 42 70 5 0 14-12 19-29 5-16 21-45 34-63 24-32 25-36 13-95-6-35-10-67-9-72 4-17-13-64-27-76-23-19-57-101-60-144-3-51 9-65 55-65 34 0 38 3 47 38 6 22 6 57 1 87-8 49 9 169 34 235 5 14 14 68 19 120s14 129 19 170 12 138 16 215c4 81 15 178 27 230 11 50 24 108 29 130s16 74 23 115c8 41 22 109 31 150s21 104 26 140c12 83 36 159 60 189 23 29 20 103-6 131-16 18-13 60 4 60 4 0 7 10 7 23-1 13 4 21 12 19 8-1 12 6 10 20-5 44 51 202 88 248 6 8 14 29 18 45 4 17 27 60 53 98 38 56 50 67 74 67 19 0 32 7 40 23 14 28 49 56 70 57 9 0 24 9 34 20 11 12 22 17 29 12 6-5 23-7 38-6 15 2 30-1 33-6 9-15 43 2 49 25 4 15 18 27 38 34 34 11 168 33 203 34 43 0 136-13 153-22 9-4 64-9 122-9s112-3 121-7c19-7 130 0 168 11 17 5 28 2 37-11 14-19 76-25 294-27 50 0 77-6 115-26 47-25 58-27 202-27 151 0 152 0 180-27 26-25 33-27 81-21 35 4 52 2 52-5 0-6 6-9 14-6s17 0 21-6 20-8 38-5c27 5 41-1 86-34 30-23 65-41 78-41s23-4 23-10c0-5 12-16 28-24 15-8 65-51 111-95 47-45 87-78 90-75s-34 44-82 91c-83 81-113 128-67 103 11-6 20-14 20-18s20-14 45-21 45-17 45-23c0-5 15-15 34-23s37-19 41-25c3-5 13-10 22-10 19 0 123-99 123-117 0-7 6-13 13-13 13 0 67-71 67-88 0-6 29-33 65-62 36-28 71-62 77-75s19-26 29-28c11-3 20-15 20-29 3-51 7-68 18-81 11-14 32-144 29-187-1-14-8-33-16-43-14-15-14-21 0-50 15-33 19-142 5-164-4-7-4-36 0-65s6-57 4-63c-2-5-3-161-2-345 0-302-7-461-35-745-4-46-4-49 11-31 8 11 15 31 15 44s9 36 20 52c11 15 24 40 31 56l11 29 13-32c8-18 25-49 39-70s26-45 26-54 6-22 14-28c11-9 14-1 20 45 6 50 4 60-15 80-21 22-21 24-5 72 12 34 14 56 7 73-7 19-3 39 15 84 14 33 31 98 39 145 24 140 53 283 65 320 6 19 13 65 15 102s9 84 15 103c14 43 8 224-8 234-5 3-13 67-17 141s-12 144-17 154c-8 15-7 22 5 30 18 14 9 86-18 151-11 26-18 71-19 132-1 51-5 95-9 99s-7 21-7 38-7 44-15 60c-11 20-12 33-5 40 5 5 10 18 10 28 0 23 11 23 40-2 13-11 25-20 27-20 8 0 1 10-32 46-19 22-40 57-46 79-6 21-19 50-30 63-10 14-19 35-19 47s-16 43-35 68c-40 52-42 62-18 76 16 8 16 11 2 28-8 10-22 38-29 63-15 47-21 56-57 96-13 14-23 29-23 34s-11 22-25 38c-14 17-23 36-20 44s-8 34-24 59c-28 41-55 66-198 181-26 20-50 43-55 52s-41 36-81 62c-40 25-107 82-149 126-77 78-78 79-78 48v-31l-32 22c-18 13-37 29-41 36-18 29-50 51-82 57-18 4-44 18-57 31-13 14-32 25-44 25-11 0-25 5-31 11-12 12-37 3-28-11 3-5 1-11-4-14s-14 7-21 23c-7 18-17 28-25 25-25-10-25 15 1 46 44 52 19 46-40-10-55-52-76-57-76-17 0 25-16 12-22-17-5-30-25-30-42 1-12 23-16 25-21 11-6-14-11-15-31-6-32 15-30 35 6 56 29 17 38 36 22 46-5 3-32-6-61-20-29-13-57-24-63-24-5 0-25 12-44 26-34 26-35 26-49 8-12-16-17-17-34-7-16 10-26 10-46 1s-28-8-43 5c-24 22-32 21-32-3 0-16-26-40-44-40-15 0-3 31 17 47 28 22 50 60 40 66-5 3-35-19-68-49zm-207-65c2-9-5-19-15-22-10-2-26-8-36-12-17-7-17-6 0 24 19 32 45 38 51 10zm34-34c0-5-5-11-11-13s-11 4-11 13 5 15 11 13 11-8 11-13z"/><path d="m5480 7690c0-5 5-10 11-10 5 0 7 5 4 10-3 6-8 10-11 10-2 0-4-4-4-10z"/><path d="m3470 5643c-8-3-25-15-37-26-24-21-75-27-81-8-7 21-44 11-72-19-16-18-44-33-70-39-24-5-47-17-52-25-5-9-13-16-18-16-17 0-100-62-100-74 0-15 71-16 102-2 10 5 38 6 63 3 25-2 48 0 51 4 3 5 10 9 16 9 7 0 6-5-2-15-18-22 16-33 37-12 12 12 22 13 41 6 13-5 33-7 44-3 21 6 58-20 58-43 0-7 3-13 8-13 13 1 42 27 35 33-3 4 27 4 67 1 51-4 70-3 66 5-4 6-14 11-22 11s-12 5-9 10c4 6 14 8 23 6 14-5 259-30 383-41 62-5 102-17 122-36 11-10 24-16 28-13 5 3 22-2 39-11 25-13 35-14 46-4 21 17 18 26-16 46-16 9-30 21-30 25 0 15 19 8 40-14 28-30 37-15 11 20-12 17-21 36-21 44 0 17-91 108-109 108-7 0-20 9-29 20-13 14-33 21-80 24-43 3-68 10-75 20-10 14-31 16-135 13-68-2-125 0-128 5-3 4-15 3-26-3-20-11-101-8-138 4-8 3-22 3-30 0z"/><path d="m5045 5517c-22-6-44-17-50-23-5-7-19-14-30-16s-25-13-31-26c-17-35-44-61-67-64-28-4-35-28-8-28s27-16 1-30c-11-6-20-17-20-25 0-18 86-21 140-4 55 16 220 14 254-5 16-8 41-13 55-10s46-2 70-10c24-9 52-16 63-16s34-6 51-13c65-28 103-40 137-43 73-7 116-5 144 6 18 6 51 8 82 4 51-6 100 8 89 26-3 4 1 11 7 14 9 3-1 18-28 43-22 21-53 56-69 77-28 38-29 39-37 16l-9-23-27 25c-61 57-93 68-212 74-36 1-96 8-135 13-98 16-120 18-208 27-43 4-80 11-83 15-6 11-27 10-79-4zm-25-41c0-3-4-8-10-11-5-3-10-1-10 4 0 6 5 11 10 11 6 0 10-2 10-4zm885-226c-3-5-15-10-26-10s-17 5-14 10c3 6 15 10 26 10s17-4 14-10z"/><path d="m3106 5401c-4-7-5-15-2-18 9-9 19 4 14 18-4 11-6 11-12 0z"/><path d="m3360 5380c0-6 7-10 15-10s15 2 15 4-7 6-15 10c-8 3-15 1-15-4z"/><path d="m3650 5353c-82-9-179-36-235-66-67-36-167-132-163-156 7-33 38-20 122 52 71 61 99 78 159 98 93 30 207 37 230 15 8-9 23-16 33-16 9 0 43-18 76-40 59-39 61-57 3-22-105 64-302 49-437-35-21-13-40-23-43-23-10 0-77-51-118-90-38-36-43-70-11-70 8 0 23-9 35-21 15-15 24-18 32-10 16 16 38 14 58-5 22-19 69-12 69 11 0 8 7 15 15 15 20 0 19 3-10 46-34 51-32 69 17 104 58 42 67 40 66-20 0-55 13-81 64-129 30-29 38-31 105-31h71l41 46c38 43 41 51 41 106 0 58 0 59 23 47 12-7 46-33 75-58 41-36 51-51 47-68-4-16 1-25 16-33 19-11 20-10 14 9-5 17-2 21 15 21 16 0 20-5 16-15s1-15 15-15c37 0 34 29-10 71-22 22-41 42-41 45s14 4 31 2c49-5 60 23 23 60-16 16-40 42-54 57-43 49-122 94-180 104-74 13-167 19-210 14zm20-173c0-5-5-10-11-10-5 0-7 5-4 10 3 6 8 10 11 10 2 0 4-4 4-10zm106-5c18-14 18-14-7-15-15 0-32 7-39 15-10 12-9 15 7 15 10 0 28-7 39-15zm-110-129c10-8 16-17 12-21-11-11-48 5-48 21 0 18 11 18 36 0z"/><path d="m5029 5187c-71-30-155-84-173-113-14-20-13-22 5-27 11-3 34-1 51 4 18 5 33 7 36 5 2-2-22-23-52-46-55-41-71-70-41-70 8 0 15 6 15 14 0 19 21 26 43 14 14-7 22-5 33 9 7 10 14 21 14 26 0 4 8 7 17 7s25 8 35 17 34 22 52 28l32 11-4-52c-4-44 0-61 22-98 15-25 35-50 45-55 35-19 102-29 133-20 61 17 118 96 118 164 0 19 5 35 11 35 7 0 31-20 55-44 54-54 56-80 9-126-19-19-35-37-35-41 0-8 56-29 76-29 21 0 16 21-6 27-17 5-30 33-15 33 11 0 74-37 90-53 9-10 21-14 27-11 6 4 6 10-1 17-6 6-11 16-11 22 0 5 4 4 8-3 10-15 69-5 76 13 2 7-32 52-76 99-62 67-100 97-162 130-100 55-151 69-245 68-56 0-71 2-62 11 8 8 49 12 119 11 101 0 111-2 182-36 75-36 170-110 170-133 0-16 30-41 58-48 12-3 22-3 22-1 0 29-101 154-124 154-5 0-17 6-25 14-9 8-50 26-91 41-164 60-332 72-431 32zm-33-112c-23-17-36-19-36-6 0 5 10 12 23 14 12 2 24 5 27 5 3 1-4-5-14-13zm279-175c-28-12-47-12-40 0 3 6 18 10 33 9 24 0 25-1 7-9z"/><path d="m4159 5098c25-25 32-27 57-18 26 10 26 11 8 24-10 7-36 15-56 18l-38 4z"/><path d="m5320 4800c0-5 9-10 20-10s20 5 20 10c0 6-9 10-20 10s-20-4-20-10z"/><path d="m5370 4801c0-10 24-21 46-21 8 0 14 7 14 15 0 10-10 15-30 15-16 0-30-4-30-9z"/><path d="m6097 4253c-11-19-17-82-8-87 5-3 7-15 4-26-3-13 0-20 8-20 11 0 14 18 14 70 0 63-6 84-18 63z"/><path d="m2727 4084c-4-4-7-25-7-46 0-45 23-49 28-5 4 29-10 62-21 51z"/><path d="m6063 4065c-9-25 4-29 17-6 7 15 7 21 0 21-6 0-13-7-17-15z"/><path d="m6090 4018c0-18 32-20 48-4s15 17-16 14c-17-1-32-6-32-10z"/><path d="m4150 3945c-41-28-86-32-112-8-28 25-21 1 7-26 31-29 31-42 0-71-26-24-33-54-15-65 8-5-2-30-40-95-4-8-14-29-20-46-9-26-16-31-33-26-12 3-27 12-33 20-8 11-13 12-18 4-4-7-16-12-27-12-16 0-19-7-19-44 0-53-15-68-32-32-12 27-23 33-33 16-10-16-28-12-22 5 13 32-16 24-64-19-50-45-69-50-69-20 0 42-53-22-64-77-5-31-2-40 21-63 22-22 29-25 38-14 5 7 27 26 48 42 29 21 42 25 50 17 6-6 21-11 34-11s23-5 23-11c0-8 4-8 13-1 6 5 33 13 59 17 38 6 53 14 73 41 26 34 52 46 42 21-7-17 1-28 35-50 26-16 27-16 33 4 5 14 12 18 27 14 12-4 27 0 38 10s26 15 34 12c9-4 18-2 21 3 4 6 19 10 34 10 20 0 34 8 45 25 14 21 20 24 36 15 11-6 20-17 20-24s11-23 24-35c22-20 31-22 78-16 39 5 61 15 84 36 26 26 33 28 43 15 7-8 30-17 51-21 22-4 51-16 65-27 21-16 28-18 40-8 8 7 15 9 15 4s4-16 10-24c7-12 12-12 29 4 21 19 41 14 41-11 0-10 6-14 20-10 15 4 24-2 35-24 9-16 22-29 29-29 8 0 21-3 30-6 17-7 46 51 47 95 0 23 1 24 9 6 5-11 9-36 9-55 1-42 16-60 48-60 13 0 26-7 29-15 4-8 15-15 25-15 23 0 23-3-1 45-11 22-20 46-20 53 0 8-11 23-25 33-13 11-22 26-19 33 6 16-7 26-53 42-24 8-33 8-36 0-3-7-14-6-36 6-17 10-33 13-36 7-11-16-24-10-31 16-3 13-12 29-20 36-8 6-11 15-8 20s-6 23-20 40c-26 31-34 73-16 84 6 4 7 13 1 24-7 13-2 24 25 50 19 19 34 38 34 42 0 5-18 9-39 9-31 0-41 4-46 21-7 20-60 59-81 59-13 0-184-139-184-149 0-3-4-12-9-20-14-21-72 7-69 34 3 29-18 63-75 123-57 58-75 62-127 27z"/><path d="m2661 3931c-12-12-17-27-14-41 6-24-21-60-47-60-16 0-40-18-40-31 0-7 71 4 88 15 16 9 72 92 72 105 0 6-9 15-20 21-15 8-24 6-39-9z"/><path d="m2720 3881c0-10 9-29 19-42l19-24-1 42c-2 34-6 43-19 43-11 0-18-8-18-19z"/><path d="m5912 3837c-28-62-29-97-2-97 24 0 32 28 28 96l-3 49z"/><path d="m2741 3771c-13-24-3-147 15-183 8-15 14-37 14-50 1-22 1-22 15-4 8 11 15 30 15 43s4 23 10 23c12 0 40 53 40 75 0 12-6 15-20 10-15-5-20-2-20 10 0 9-9 19-20 22-17 5-19 11-14 39 5 27 3 34-10 34-8 0-20-8-25-19z"/><path d="m5883 3722c-10-6-50-150-58-207-1-11-6-28-10-37-5-12-3-18 7-18 16 0 34 45 44 113 3 26 10 50 15 53s25-8 43-24c37-32 116-49 157-33 20 8 17 10-24 10-83 1-144 47-134 101 5 22 2 32-11 39-10 5-23 7-29 3z"/><path d="m2904 3674c3-9 6-20 6-25s7-9 15-9c18 0 20 21 3 38s-31 15-24-4z"/><path d="m2896 3611c-4-7-5-15-2-18 9-9 19 4 14 18-4 11-6 11-12 0z"/><path d="m2935 3559c-9-39 2-48 43-37 37 10 41 30 10 52-33 23-46 20-53-15z"/><path d="m2815 3519c-5-14-13-19-25-16-11 3-21-1-24-10-8-21-8-23 9-23 24 0 32-36 24-103-6-48-4-65 7-77 12-12 16-12 29 5 17 24 19 45 4 45-12 0-8 42 5 51 16 12 16 83-1 101-8 10-13 24-10 33 4 8 2 15-3 15s-12-9-15-21z"/><path d="m5740 3511c0-6 5-13 10-16 6-3 10 1 10 9 0 9-4 16-10 16-5 0-10-4-10-9z"/><path d="m2933 3460c-20-12-33-28-33-40 0-26 25-36 46-20 23 20 41-2 26-34-12-27-7-36 20-36 24 0 23-5-13-70-26-47-28-56-15-66 13-9 13-15 1-50-15-42-19-77-9-87 13-13 36 7 51 44 16 40 30 48 51 27 19-19 23-5 24 74 0 40 5 84 10 97 9 26 2 43-11 23-6-10-16-8-44 8-41 25-43 28-23 55 9 12 11 27 6 40-4 11-5 25-3 31s-6 14-19 18c-31 8-29 8-65-14z"/><path d="m3500 3472c0-10 21-32 31-32 4 0 5 9 2 20-5 19-33 29-33 12z"/><path d="m5740 3468c0-8 7-23 15-34 19-25 19-53 0-60-11-5-12-11-5-24 15-27 12-96-4-109-7-6-21-9-30-5-20 8-21-4 0-27 19-21 10-63-12-55-9 3-14-1-14-14 0-11 5-20 10-20 18 0 11-28-10-43-12-8-20-21-18-28 2-8-4-13-14-13-11 1-18-5-18-17 0-10-4-21-10-24-5-3-10-16-10-28 0-14-7-23-17-24-51-5-63-10-77-28-20-26-20-55-1-55 8 0 15 6 15 14 0 16 37 46 57 46 7 0 13-8 13-17-1-29-26-53-50-51-30 4-70-52-70-96 0-66-28-102-44-59-6 14-9 13-23-8-10-13-25-30-35-37-11-8-28-23-38-35-11-11-23-18-26-14-3 3-19-8-35-24-25-26-32-28-50-18-20 10-21 9-17-15 7-33-8-33-34-1-22 29-38 32-38 9 0-11-6-15-18-12-13 4-17-2-17-26 0-26-4-31-22-30-25 1-30-15-12-33 17-17 1-33-29-27-29 5-37 1-65-33-19-21-18-22 2-44 23-25 26-35 11-44-5-3-10-1-10 5 0 19-44 29-56 12-19-25-45-7-42 29 2 20-2 34-11 37-10 3-12-1-8-17 3-14 1-21-10-21-10 0-12-6-8-20 8-25-16-66-43-74-26-9-72 10-72 28 0 8-5 18-11 22-7 4-9-2-7-17 2-18-4-28-27-39-16-8-39-29-50-47s-23-32-27-33c-3 0-19 13-35 30-15 17-31 30-35 30s-24-15-44-34c-30-28-40-32-55-23-13 8-21 8-32-2-12-9-17-9-22 0-5 8-28 9-76 5l-68-7 1 31c1 41-11 50-29 23-12-17-25-23-54-23-39 0-45 7-40 48 2 11-12 17-32 13-5-1-6 8-2 19 5 15-3 29-32 55-21 19-39 31-41 26-6-18-42 2-42 23-1 21-1 21-11 1-6-11-25-32-42-46l-31-27-43 42c-69 67-68 66-87 48-16-16-18-16-27 1-6 10-22 22-36 28-23 9-24 12-18 59 5 34 3 50-4 50-11 0-13-6-15-49-1-13-6-26-13-28-7-3-14 16-18 52-5 40-11 53-18 46-15-15-54-14-60 2-2 6 0 22 4 35 6 16 5 22-5 22-8 0-16 5-18 11-3 9-10 8-28-1-21-11-26-10-47 16-14 16-34 40-46 53s-21 30-19 38c2 7-2 13-8 13s-9 3-7 8c3 4 1 17-4 30-11 29-56 28-51 0 2-10-2-18-8-18-5 0-10-4-10-10 0-18 30-11 30 8 1 10 8 4 20-18 13-25 17-46 13-72-4-31-2-38 11-38 9 0 21-11 28-25 16-35-4-55-53-55-31 0-39 4-39 18 0 11-9 27-21 38-20 18-21 41-4 87 5 12 2 17-10 17-33 0-97 54-115 98-5 12-18 22-30 22-17 0-19-4-14-25 5-19 2-27-12-32-11-3-22-11-26-17s-11 0-16 14c-8 22-6 26 15 34 22 7 24 12 18 45-10 53-18 59-75 53-41-4-50-2-50 11 0 9 9 19 20 22 22 7 26 20 9 30-6 4-24-7-41-24l-30-30 21-30c12-16 21-35 21-43 0-7 14-30 30-50 17-21 39-57 50-81s28-52 40-62c11-10 20-22 20-27s11-24 25-42 25-36 25-39c0-9 60-96 71-102 5-4 9-15 9-25 0-11 18-32 44-49 25-18 46-41 50-56 6-24 11-26 49-23 34 2 42 0 45-15s-2-18-24-15c-21 2-30-2-32-14-3-13 3-17 20-16 30 2 78-29 78-52s21-41 98-81c13-7 22-22 22-36 0-28 26-41 51-25 26 17 31 15 24-8-7-21 27-59 53-60 7 0 15-7 19-16 7-20 128-80 179-89 21-4 53-18 71-31 17-13 39-24 48-24s23-7 31-15c22-22 61-19 69 5 9 27 23 25 31-4 7-31 50-47 82-33 19 9 26 8 34-6 15-29 46-4 50 40 2 27 8 39 21 41 16 3 18-1 12-27-6-27-4-31 15-31 11 0 31 6 43 14 25 16 98 30 143 27 20-1 34 4 38 14 3 8 15 15 26 15s23 7 26 15c4 8 18 15 33 15 26 0 59 18 97 53 26 25 107 77 119 77 6 0 35 29 65 64s74 76 98 91c23 16 42 32 42 36 0 5 18 18 40 29s40 27 40 34c0 15 97 133 171 209 27 27 49 58 49 69 0 10 13 26 28 35 29 17 34 24 111 158 24 42 48 81 55 88 20 22 86 168 86 191 0 8 6 16 14 19s19 25 25 49c12 50 38 148 53 198 5 19 12 51 15 70s12 39 19 43c22 12-4 59-28 51-13-4-26 2-39 17s-19 18-19 7zm-180-658c0-5-4-10-10-10-5 0-10 5-10 10 0 6 5 10 10 10 6 0 10-4 10-10zm-1602-542c-6-18-28-21-28-4 0 9 7 16 16 16s14-5 12-12zm1012 2c0-5-2-10-4-10-3 0-8 5-11 10-3 6-1 10 4 10 6 0 11-4 11-10zm-600-344c0-3-4-8-10-11-5-3-10-1-10 4 0 6 5 11 10 11 6 0 10-2 10-4zm-106-102c10-27 7-44-9-44-10 0-15 10-15 30 0 32 14 40 24 14z"/><path d="m5700 3445c0-13 24-55 32-55 19 0 20 31 2 45-19 14-34 19-34 10z"/><path d="m3057 3426c-15-12-16-18-7-35 14-26 30-27 30-2 0 11 3 26 6 35 7 20-5 20-29 2z"/><path d="m3667 3380c-15-16-27-37-27-45 0-9-11-20-24-24-35-14-43-71-10-71 8 0 14-6 14-14s12-17 28-21c15-3 34-13 43-21 20-18 49-8 49 17 0 27 26 34 67 20 19-7 45-15 56-17 12-2 35-6 50-10 21-5 34-1 51 15 20 19 27 20 48 10 18-8 43-8 92-1 42 7 86 7 119 2 29-5 120-16 202-25 217-22 304-35 355-52 53-17 112-21 157-10 27 7 35 5 53-16 17-19 29-23 65-22 35 2 49-3 66-21 29-31 39-30 39 4 0 36-35 68-56 51-11-9-14-8-14 5 0 9-2 16-4 16s-20 7-41 16c-20 8-34 10-30 5 11-18-25-12-51 8-16 12-41 19-72 20-26 0-60 4-77 9-16 4-45 7-63 5-19-1-41 1-50 6-10 5-47 12-84 15s-79 11-93 16c-15 6-48 10-74 10s-53 6-59 12c-10 10-17 10-33 0-17-11-24-10-46 7-14 12-30 18-36 14-21-13-230-15-289-3-32 7-58 15-58 19 0 3-23 4-51 2-53-3-139 15-139 30 0 5-11 7-25 3-19-5-25-2-25 9 0 9 5 19 10 22 12 7 13 35 2 35-5 0-21-13-35-30z"/><path d="m3497 3383c-8-8-9-43-1-43 3 0 12 6 19 14 12 12 12 16 1 25-7 6-16 8-19 4z"/><path d="m5100 3378c1-50 14-88 31-88 11 0 19 5 19 10 0 6 7 10 15 10 28 0 15 28-15 35-16 4-30 13-30 20 0 8-4 17-10 20-5 3-10 0-10-7z"/><path d="m4915 3340c3-5 10-10 16-10 5 0 9 5 9 10 0 6-7 10-16 10-8 0-12-4-9-10z"/><path d="m3517 3290c-9-16-12-32-7-35 8-5 40 38 40 55 0 20-19 9-33-20z"/><path d="m2804 3246c-7-17 22-86 35-86 6 0 11-9 11-20s5-20 11-20c14 0 4 79-12 95-5 5-9 17-9 27 0 21-28 24-36 4z"/><path d="m4740 3241c0-5 7-11 15-15 8-3 15-1 15 3 0 5-7 11-15 15-8 3-15 1-15-3z"/><path d="m5607 3154c-3-3-3-13 0-21 5-12 7-12 14-1 15 23 4 40-14 22z"/><path d="m5200 3140c0-5 5-10 11-10 5 0 7 5 4 10-3 6-8 10-11 10-2 0-4-4-4-10z"/><path d="m5603 3093c9-9 19-14 23-11 10 10-6 28-24 28-15 0-15-1 1-17z"/><path d="m2880 3076c0-17 5-26 16-26 10 0 14 7 12 22-5 32-28 35-28 4z"/><path d="m5495 2990c3-5 14-10 23-10 15 0 15 2 2 10-20 13-33 13-25 0z"/><path d="m2927 2984c-8-8 1-24 14-24 5 0 9 7 9 15 0 15-12 20-23 9z"/><path d="m4195 2956c-16-7-48-14-70-15-22-2-51-4-65-4-32-2-33-31-1-35 13-2 26-12 28-24 5-16 11-18 44-13l38 7 11-44c6-24 15-50 21-58 5-8 12-22 15-31 8-23 73-32 100-14 13 8 35 12 61 8 42-5 83 16 83 44 0 19 40 36 91 40 99 6 126 39 69 82-26 18-44 22-110 23-63 0-82 4-89 16-7 13-12 14-24 4s-23-9-57 4c-36 14-43 15-51 3-6-10-11-11-16-3-13 19-47 24-78 10z"/><path d="m3610 2675c-6-19-17-35-23-35-7-1 0-8 16-16 15-8 27-20 27-26 0-9 3-9 12 0s8 20-5 47c-16 33-16 35 6 50l21 15h-21c-16 0-25-9-33-35z"/><path d="m5157 2683c-4-3-7-21-7-38 0-32 15-45 67-60 30-8 83 44 58 57-8 5-15 16-15 23 0 18-14 19-40 3-15-10-22-9-38 5-10 9-22 14-25 10z"/><path d="m3920 2435c0-8 5-15 10-15 6 0 10 7 10 15s-4 15-10 15c-5 0-10-7-10-15z"/><path d="m4750 2435c7-9 15-13 17-11 7 7-7 26-19 26-6 0-6-6 2-15z"/><path d="m4900 2440c0-5 5-10 11-10 5 0 7 5 4 10-3 6-8 10-11 10-2 0-4-4-4-10z"/><path d="m4794 2337c-8-22 11-46 26-31 7 7 5 17-4 30-14 18-15 18-22 1z"/><path d="m4290 2194c0-8 5-12 10-9 6 3 10 10 10 16 0 5-4 9-10 9-5 0-10-7-10-16z"/><path d="m2650 2119c-14-6-64-19-111-29-101-21-127-33-207-98-45-36-80-54-139-71-190-56-304-96-328-116-20-18-44-24-112-30-48-4-96-11-107-15-12-5-66-18-121-31-128-28-190-53-241-100-56-50-113-73-219-88-49-7-116-21-148-32-31-10-67-19-80-19-22 0-34-4-202-60-50-16-104-30-119-30-37 0-146-28-171-44-11-7-36-16-55-20-19-3-62-20-95-36s-65-30-70-30c-6 0-28-9-50-20s-47-20-57-20c-17 0-18-31-18-615v-615h4381c2409 0 4379 3 4377 8-11 20-37 82-52 124-10 27-35 64-56 85-31 29-41 46-45 82-13 97-34 148-81 200-52 58-75 69-189 96-67 15-99 30-200 95-123 80-157 107-212 177-37 46-138 93-201 93-52 0-196 48-262 87-31 18-89 44-129 58-40 13-79 29-85 33-38 30-334 172-358 172-7 0-98 42-308 142-74 36-169 77-210 92-41 16-91 36-110 46s-74 28-123 39c-48 11-105 30-126 41-22 10-73 27-115 35-107 22-154 45-211 105-27 28-63 58-79 67-45 24-115 42-122 32-3-5 19-36 50-69 40-44 57-71 63-102 10-51 1-145-22-220-27-88-116-276-156-330-104-139-305-331-424-405-53-33-195-105-330-168-89-41-347-129-500-170-88-24-112-26-201-22-72 4-122 13-175 32-41 14-127 44-191 65-64 22-153 57-196 79-94 47-278 156-307 181-11 10-45 34-75 55-58 41-157 124-225 190-58 57-94 105-170 229-103 169-141 309-132 480 7 126 50 216 119 246 13 5 55 30 93 55 39 26 82 51 98 58 15 6 26 16 24 22-5 14-146 17-177 4z"/></g></svg>