<svg xmlns="http://www.w3.org/2000/svg" viewBox="0 0 1280 1280"><filter id="a"><feGaussianBlur stdDeviation="12"/></filter><path fill="#b5acaa" d="M0 0h1280v1280H0z"/><g filter="url(#a)" fill-opacity=".5"><path fill="#2f1a15" d="M2.5 2.5h1270v630H2.5z"/><path fill="#fffaf0" d="M652.5 67.5h590v280h-590z"/><path fill="#fff" d="M2.5 632.5h1280v650H2.5z"/><path fill="#400000" d="M877.5 382.5h405v205h-405z"/><path d="M2.5 2.5h865v65H2.5z"/><path fill="#fff" d="M2.5 637.5h1280v645H2.5z"/><path fill="#0d1414" d="M2.5 467.5h465v160H2.5z"/><path fill="#f60000" d="M1047.5 682.5h165v45h-165z"/><path fill="#a7aca8" d="M552.5 182.5h345v285h-345z"/><path fill="#1e221e" d="M2.5 47.5h480v135H2.5z"/><path d="M1032.5 2.5h250v65h-250z"/><path fill="#9a5a3f" d="M972.5 102.5h125v280h-125z"/><path fill="#fdfcfa" d="M1117.5 67.5h120v250h-120z"/><path fill="#ff413f" d="M57.5 422.5h325v45h-325z"/><path fill="#27020d" d="M1132.5 447.5h150v180h-150z"/><path fill="#ff9c6f" d="M907.5 577.5h250v55h-250z"/><path fill="#fff" d="M1267.5 72.5h15v375h-15z"/><path fill="#1d2623" d="M2.5 187.5h70v375h-70z"/><path fill="#1e0d18" d="M72.5 1037.5h75v30h-75z"/><path fill="#3b4140" d="M337.5 287.5h150v330h-150z"/><path fill="#7d8280" d="M517.5 72.5h215v395h-215z"/><path fill="#fff" d="M537.5 627.5h505v655h-505z"/><path fill="#a79185" d="M87.5 867.5h540v30h-540z"/><path fill="#8f9b99" d="M77.5 187.5h360v100h-360z"/><path fill="#868168" d="M57.5 767.5h530v10h-530z"/><path fill="#d8d7d4" d="M822.5 72.5h155v235h-155z"/><path fill="#940000" d="M1147.5 762.5h60v20h-60z"/><path fill="#747b73" d="M87.5 692.5h300v20h-300z"/><path fill="#ff5856" d="M882.5 22.5h155v25h-155z"/><path fill="#fff" d="M262.5 1007.5h1020v275h-1020z"/><path fill="#c4c6c3" d="M52.5 502.5h545v10h-545z"/><path fill="#b83f3b" d="M1137.5 1107.5h100v25h-100z"/><path fill="#fb3d38" d="M1117.5 927.5h90v30h-90z"/><path fill="#fff" d="M632.5 722.5h650v215h-650z"/><path fill="#5d000c" d="M1107.5 327.5h65v275h-65z"/><path fill="#1b0500" d="M987.5 112.5h90v30h-90z"/><path fill="#bec3c2" d="M462.5 182.5h200v45h-200z"/><path fill="#989f98" d="M97.5 1167.5h1110v10H97.5z"/><path fill="#636a64" d="M127.5 942.5h360v10h-360z"/><path fill="#49000c" d="M872.5 442.5h200v120h-200z"/><path fill="#8c5843" d="M77.5 1212.5h70v35h-70z"/><path fill="#3b4446" d="M2.5 287.5h405v135H2.5z"/></g></svg>